# xmcd
#
# Track frame offsets: 
#        150
#        17660
#        35476
#        52196
#        72077
#        89118
#        107792
#        123563
#        140986
#        159237
#        177746
#        196477
#        217164
#        232841
#        251245
#        270473
#
# Disc length: 3797 seconds
#
# Revision: 0
# Processed by: cddbd v1.5.2PL0 Copyright (c) Steve Scherf et al.
# Submitted via: ExactAudioCopyFreeDBPlugin 1.0
#
DISCID=fa0ed310
DTITLE=Nikkole - A Girl Like Me
DYEAR=2005
DGENRE=R&B
TTITLE0=RSVP (feat. Melle Mel)
TTITLE1=It's Too Late (feat. The Emotions)
TTITLE2=Gon' Bounce
TTITLE3=Breathe
TTITLE4=I Wish
TTITLE5=Baby, Baby
TTITLE6=Waiting
TTITLE7=Lollipop
TTITLE8=I Think of You (feat. Shadii)
TTITLE9=Amazing
TTITLE10=Nothing Without You
TTITLE11=Drive You Crazy (feat. Wendi and Wyann With Sober)
TTITLE12=And You Love Me Too
TTITLE13=That's What Life's About
TTITLE14=Over It (Japanese Version)
TTITLE15=A Girl Like Me
EXTD=
EXTT0=
EXTT1=
EXTT2=
EXTT3=
EXTT4=
EXTT5=
EXTT6=
EXTT7=
EXTT8=
EXTT9=
EXTT10=
EXTT11=
EXTT12=
EXTT13=
EXTT14=
EXTT15=
PLAYORDER=
